<svg xmlns="http://www.w3.org/2000/svg" width="256" height="256"><path fill-opacity=".016" d="M0 128.004v128.004l128.25-.254 128.25-.254.254-127.75L257.008 0H0v128.004m.485.496c0 70.4.119 99.053.265 63.672.146-35.38.146-92.98 0-128C.604 29.153.485 58.1.485 128.5" fill="#1976D2" fill-rule="evenodd"/><path fill-opacity=".127" d="M0 128.004v128.004l128.25-.254 128.25-.254.254-127.75L257.008 0H0v128.004m.485.496c0 70.4.119 99.053.265 63.672.146-35.38.146-92.98 0-128C.604 29.153.485 58.1.485 128.5M244.269 7.693c.973.254 2.323.237 3-.037.677-.274-.119-.481-1.769-.461-1.65.02-2.204.244-1.231.498M131.61 61.64C108.807 66.53 83.63 83.173 69.042 103c-10.837 14.73-17.985 32.062-20.127 48.804-2.78 21.732 5.143 39.088 20.678 45.295 5.335 2.131 7.456 2.362 21.907 2.381 13.973.017 16.95-.275 23.5-2.308 13.782-4.277 25.494-11.894 38.287-24.897 6.53-6.639 6.716-6.962 4.925-8.583-1.763-1.596-2.146-1.471-7.287 2.385-14.053 10.54-25.543 15.114-38.425 15.296-7.541.106-9.673-.233-13.153-2.094-5.246-2.805-10.08-8.608-11.478-13.779-1.081-4.001-.841-22.861.306-24.008.334-.334 5.411-1.238 11.282-2.009 26.43-3.469 45.115-11.931 59.286-26.849 12.946-13.629 18.33-29.898 13.505-40.806-2.159-4.88-6.68-8.86-12.147-10.69-4.663-1.561-20.14-1.288-28.491.502m-5.622 9.306c-4.427 2.341-12.777 11.12-17.274 18.16-7.15 11.193-16.648 32.697-18.277 41.378-.67 3.569-.642 3.606 2.192 2.961 16.659-3.794 20.416-5.5 28.201-12.805 10.788-10.124 18.906-26.115 19.895-39.188.518-6.845.399-7.419-2.042-9.86-3.122-3.122-7.584-3.349-12.695-.646M24.244 221.174c-1.296 5.459-.924 7.76.601 3.715 1.561-4.143 2.347-8.889 1.471-8.889-.463 0-1.396 2.328-2.072 5.174m69.378.04c-1.344 4.586-1.439 6.975-.225 5.703C94.423 225.842 96.788 216 96.021 216c-.479 0-1.558 2.346-2.399 5.214m94.628-4.552c-1.901.767-1.494 3.807.785 5.87 1.12 1.013 1.809 2.433 1.532 3.155-.277.722-.068 1.313.464 1.313 1.568 0 1.108-4.64-.601-6.058-.863-.716-1.355-2.121-1.093-3.122s.405-1.784.319-1.741c-.086.043-.718.306-1.406.583M29.543 219.25c-1.012 3.301-1.162 7.75-.262 7.75 1.465 0 1.946-3.021.718-4.501-.986-1.189-.911-1.596.388-2.094.887-.341 1.613-1.246 1.613-2.012 0-2.21-1.698-1.617-2.457.857m81.261-.335c-.902 1.054-1.451 2.105-1.22 2.336.231.23-.235 2.631-1.035 5.334-1.26 4.253-1.261 4.656-.015 2.991.792-1.058 1.721-3.42 2.065-5.25.343-1.829.927-3.326 1.298-3.326s.674-.9.674-2-.028-2-.063-2-.802.862-1.704 1.915m43.167 1.124c-.809.512-1.145.937-.746.946.399.008.274 1.202-.278 2.654-1.583 4.163-.241 3.999 1.508-.184 1.75-4.19 1.667-4.776-.484-3.416m57.689-.298c-.263.426-.745 2.571-1.071 4.767-.57 3.84-.549 3.878.544.992.624-1.65 1.547-3.522 2.05-4.161.559-.709.533-1.396-.065-1.766-.539-.333-1.195-.257-1.458.168m-176.544 3.357c-1.342 3.849-1.345 3.902-.241 3.902.894 0 2.457-6.001 1.748-6.711-.216-.215-.894 1.049-1.507 2.809m4.856-1.046c-.603 1.128-.948 3.04-.766 4.25.243 1.607.635 1.055 1.457-2.052 1.231-4.652 1.006-5.368-.691-2.198m4.568-1.117c-.368.596.259 2.266 1.395 3.71 2.365 3.006 2.729 1.863.67-2.105-.83-1.6-1.666-2.25-2.065-1.605m6.722 2.564c-.591 1.924-.752 3.698-.359 3.941.393.243 1.189-1.331 1.767-3.499 1.301-4.874.07-5.26-1.408-.442m4.999.001c-.604 1.969-.677 3.5-.167 3.5.498 0 .906-.115.906-.257 0-.141.419-1.716.93-3.5 1.261-4.395-.315-4.152-1.669.257m5.187-2.584c.312.504.124 2.079-.416 3.5-.54 1.421-.596 2.584-.124 2.584.849 0 2.052-3.329 2.078-5.75.008-.687-.463-1.25-1.045-1.25-.582 0-.804.412-.493.916m8.877-.258c.362.362.099 1.374-.584 2.25-1.098 1.409-1.039 1.434.509.22 2.005-1.573 2.295-3.128.583-3.128-.641 0-.87.296-.508.658m3.707.901c.017 1.067.692 2.815 1.5 3.882 1.453 1.922 1.468 1.922 1.436 0-.017-1.067-.692-2.815-1.5-3.882-1.453-1.922-1.468-1.922-1.436 0m7 0c.017 1.067.692 2.815 1.5 3.882 1.453 1.922 1.468 1.922 1.436 0-.017-1.067-.692-2.815-1.5-3.882-1.453-1.922-1.468-1.922-1.436 0m18.229 1.942c-.591 1.924-.702 3.499-.247 3.499.893 0 2.454-5.865 1.749-6.571-.236-.235-.911 1.147-1.502 3.072m5.063-2.251c-.005.688-.336 2.262-.734 3.5-.445 1.381-.312 2.25.343 2.25.587 0 1.073-.562 1.081-1.25.007-.687.285-2.262.616-3.5.332-1.238.176-2.25-.347-2.25-.522 0-.954.563-.959 1.25m15.029-.488c.364.588.205 2.345-.352 3.904-.944 2.641-.91 2.702.493.893 1.8-2.321 1.927-4.181.351-5.154-.683-.423-.884-.277-.492.357m4.647 1.156c0 1.055-.297 2.743-.659 3.75-.363 1.008-.349 1.556.031 1.218 1.235-1.1 2.545-6.886 1.558-6.886-.511 0-.93.863-.93 1.918m3.5-.918c-.34.55-.141 1 .441 1s1.059-.45 1.059-1-.198-1-.441-1-.719.45-1.059 1m3.486.25c-.007.688-.299 2.375-.647 3.75-.904 3.564.542 1.903 1.622-1.864.548-1.912.536-3.136-.031-3.136-.511 0-.936.563-.944 1.25m4.014.668c0 1.055-.291 2.743-.647 3.75-.486 1.374-.352 1.56.536.745 1.559-1.43 2.437-6.413 1.131-6.413-.561 0-1.02.863-1.02 1.918m4.261 1.583c-.591 1.924-.702 3.499-.247 3.499.893 0 2.454-5.865 1.749-6.571-.236-.235-.911 1.147-1.502 3.072m5.984-2.251c-1.675 2.094-2.388 5.544-1.286 6.225.597.368 1.041-.264 1.041-1.482 0-1.168.466-2.995 1.035-4.059 1.169-2.183.72-2.572-.79-.684m3.18 2.297c-.926 4.935-.047 5.234 1.238.421.582-2.182.692-3.968.243-3.968-.448 0-1.115 1.596-1.481 3.547m9.691-.449c-1.342 3.849-1.345 3.902-.241 3.902.894 0 2.457-6.001 1.748-6.711-.216-.215-.894 1.049-1.507 2.809m14.091-.186c-.669 1.877-1.025 3.603-.793 3.836.769.768 2.72-3.818 2.361-5.55-.233-1.126-.762-.548-1.568 1.714m4.793-.994c0 1.055-.259 2.743-.576 3.75-.459 1.462-.382 1.529.38.332 1.687-2.652 2.392-6 1.263-6-.587 0-1.067.863-1.067 1.918m19.29 2.236c.116 2.56.548 4.446.96 4.191.989-.611.837-4.334-.28-6.845-.654-1.472-.834-.771-.68 2.654m7.748-2.654c.014 1.1.686 2.874 1.494 3.941 1.907 2.522 1.891.598-.026-3.077-1.195-2.29-1.489-2.463-1.468-.864m15.526.207c-.542 1.425-.428 1.54.56.56.684-.679.991-1.486.683-1.793-.308-.308-.867.247-1.243 1.233m4.422-.457c-.007.688-.299 2.375-.647 3.75-.904 3.564.542 1.903 1.622-1.864.548-1.912.536-3.136-.031-3.136-.511 0-.936.563-.944 1.25m4.014.668c0 1.055-.259 2.743-.576 3.75-.459 1.462-.382 1.529.38.332 1.687-2.652 2.392-6 1.263-6-.587 0-1.067.863-1.067 1.918m4.261 1.583c-.591 1.924-.702 3.499-.247 3.499.893 0 2.454-5.865 1.749-6.571-.236-.235-.911 1.147-1.502 3.072m-166.226-.567c-1.365 2.552-1.306 3.748.215 4.332.848.325 1.25-.606 1.25-2.893 0-3.928-.087-4.013-1.465-1.439m49.005-.482c-.663.799-1.055 2.195-.873 3.103.223 1.103.719.621 1.496-1.452 1.293-3.448 1.16-3.799-.623-1.651m48 0c-.663.799-1.055 2.195-.873 3.103.223 1.103.719.621 1.496-1.452 1.293-3.448 1.16-3.799-.623-1.651m4.209 1.798c-1.075 2.938-1.048 3.064.281 1.309 1.272-1.68 2.023-4.559 1.189-4.559-.154 0-.816 1.463-1.47 3.25m48.418-1.583c-.903.903-.846 4.104.083 4.678.412.255.75-.843.75-2.44 0-1.598-.037-2.905-.083-2.905-.046 0-.384.3-.75.667" fill="#1976D2" fill-rule="evenodd"/><path fill-opacity=".393" d="M0 128v128h173.773l.44-3c.252-1.712-.022-3.051-.636-3.118-.592-.065.273-.462 1.923-.882s18.637-.817 37.75-.882L248 248V8l-44.25-.191C179.412 7.703 163.775 7.339 169 7c5.225-.339 8.488-.703 7.25-.809C174.459 6.039 174 5.388 174 3V0H0v128m139.472-68.002c-25.321 3.496-51.332 18.504-67.848 39.147-7.875 9.843-16.6 26.407-20.203 38.355-2.313 7.672-2.729 10.925-2.817 22.047l-.104 13.048 3.772 7.637c7.523 15.23 17.47 20.288 39.728 20.2 20.046-.079 34.972-5.345 50.585-17.844 7.89-6.316 17.415-15.781 17.415-17.305 0-.441-.897-1.362-1.992-2.046-1.748-1.091-2.762-.677-8.25 3.367-19.595 14.44-40.939 18.836-52.929 10.901-7.731-5.115-10.737-14.328-9.384-28.76l.699-7.46 12.421-1.657c33.448-4.46 58.314-19.585 69.585-42.324 3.277-6.61 4.693-15.997 3.43-22.73-.866-4.615-5.94-10.41-11.08-12.654-4.978-2.173-15.095-3.018-23.028-1.922m-13.281 11.136c-9.427 4.667-21.675 22.527-29.972 43.71C89.689 131.513 89.351 133 92.087 133c3.61 0 14.036-3.029 18.887-5.487 14.39-7.292 27.792-28.017 29.614-45.793.658-6.429.593-6.692-2.379-9.665-3.609-3.609-6.188-3.806-12.018-.921M24.288 220.203c-.634 2.363-1.456 5.084-1.827 6.047-.539 1.398-.138 1.75 1.998 1.75 5.686 0 9.195-5.023 4.541-6.5-2.361-.75-2.722-4.5-.433-4.5 1.142 0 1.385.576.895 2.118-.486 1.532-.297 1.994.683 1.667.745-.248 1.355-1.314 1.355-2.368 0-1.402-.814-1.997-3.03-2.214-2.803-.275-3.116.025-4.182 4M53 217c0 .55.45 1 1 1s1-.45 1-1-.45-1-1-1-1 .45-1 1m41 .874c0 1.031-.655 3.731-1.456 6-1.164 3.3-1.195 4.126-.158 4.126.714 0 1.847-1.912 2.519-4.25l1.726-6c.327-1.137-.046-1.75-1.064-1.75-.865 0-1.567.839-1.567 1.874m16.592.626c-.901 1.375-1.424 2.5-1.163 2.5.261 0-.162 2.117-.94 4.703-.779 2.587-1.226 4.893-.995 5.124.579.579 3.574-6.33 4.477-10.327.125-.55.648-1.787 1.163-2.75 1.461-2.731-.674-2.101-2.542.75M159 217c0 .55.45 1 1 1s1-.45 1-1-.45-1-1-1-1 .45-1 1m28.667-.333c-1.168 1.167-.718 4.045.833 5.333 2.221 1.843 1.905 5-.5 5-1.1 0-2-.477-2-1.059s-.45-.781-1-.441c-2.209 1.365-.79 2.603 2.649 2.31 5.103-.434 6.5-2.958 3.441-6.214-1.356-1.444-2.092-3.148-1.748-4.045.601-1.565-.443-2.116-1.675-.884m3.905.083c.497.412 1.241 1.2 1.651 1.75.426.571.753.249.762-.75.008-.973-.725-1.75-1.652-1.75-.916 0-1.259.338-.761.75m-37.34 2.476c-1.434 1.735-2.678 8.774-1.551 8.774.925 0 3.699-8.953 2.994-9.659-.215-.214-.864.184-1.443.885m57.766.106c-.824.642-1.553 1.843-1.621 2.668-.067.825-.292 2.353-.5 3.396-.211 1.064.281 2.112 1.123 2.387.825.27 1.187.153.803-.259-.383-.413.011-2.518.876-4.679 1.741-4.352 1.565-5.264-.681-3.513m-177.451 4.27c-.372 1.981-.452 3.826-.178 4.1.785.785 2.723-.744 2.14-1.687-.288-.466-.081-2.01.459-3.431.759-1.996.672-2.584-.381-2.584-.775 0-1.656 1.557-2.04 3.602m4.614-1.055c-.639 1.401-1.161 3.238-1.161 4.083 0 1.978 2.252 1.264 2.556-.811.127-.864.534-2.527.905-3.695.949-2.992-.899-2.652-2.3.423m5.393-1.635c-.35.567.058 2.093.908 3.39.85 1.297 1.206 2.731.792 3.188-.415.457-.191.507.496.111.688-.395 1.236-1.48 1.218-2.41-.044-2.352-2.614-5.573-3.414-4.279m6.738.338c-.022.688-.371 2.488-.775 4-.442 1.656-.336 2.75.266 2.75.55 0 1.272-1.083 1.604-2.407.333-1.324.88-3.124 1.216-4 .385-1.003.077-1.593-.829-1.593-.793 0-1.459.563-1.482 1.25m5 0c-.022.688-.371 2.488-.775 4s-.348 2.746.125 2.742c.982-.009 3.358-4.743 3.358-6.691 0-1.668-2.653-1.717-2.708-.051m4.694.417c-.007 1.008-.3 2.906-.651 4.217-.459 1.715-.271 2.261.672 1.947.72-.24 1.458-1.41 1.64-2.599.181-1.189.448-2.684.591-3.322.144-.638-.3-1.366-.988-1.618-.71-.261-1.256.334-1.264 1.375m5.581.259c-2.161 2.388-1.693 5.426.913 5.928 1.712.33 1.786.171.591-1.268-1.061-1.279-1.115-2.195-.239-4.116 1.354-2.972 1.051-3.103-1.265-.544m3.128.131c-.441 1.688-.283 1.846.884.878 1.591-1.321 1.886-2.935.538-2.935-.486 0-1.126.926-1.422 2.057m4.337-.307c.046 2.528 2.6 5.654 3.47 4.247.382-.618-.026-1.919-.906-2.891-.88-.973-1.299-2.069-.932-2.437.368-.368.144-.669-.497-.669-.642 0-1.153.787-1.135 1.75m6.45-.72c-.373.603.085 1.939 1.018 2.97.964 1.065 1.377 2.441.957 3.187-.406.722.06.561 1.037-.358 1.699-1.598 1.687-1.784-.279-4.283-1.294-1.645-2.307-2.207-2.733-1.516m18.18 2.667c-.718 4.423-.242 5.256 1.327 2.324 1.787-3.339 2.047-6.021.584-6.021-.737 0-1.574 1.618-1.911 3.697m4.885-.095c-.613 3.265-.189 5.382.864 4.315 1.028-1.043 1.733-7.917.812-7.917-.55 0-1.305 1.621-1.676 3.602M115.2 221.2c-1.528 1.528-1.556 5.462-.045 6.395.719.445.882.275.433-.453-.397-.642-.051-2.512.768-4.155 1.529-3.064.976-3.919-1.156-1.787m3.8.866c0 1.136-.515 3.048-1.146 4.25-1.137 2.168-1.129 2.17 1 .279 2.173-1.929 2.984-6.595 1.146-6.595-.55 0-1 .93-1 2.066m4.425 1.481c-.823 4.391.159 5.678 1.547 2.027 1.286-3.384 1.315-5.574.073-5.574-.525 0-1.254 1.596-1.62 3.547M127 221c0 .55.45 1 1 1s1-.45 1-1-.45-1-1-1-1 .45-1 1m3.613 1.407c-.333 1.324-.88 3.124-1.216 4-.336.876-.185 1.593.335 1.593 1.084 0 3.268-4.377 3.268-6.547 0-2.353-1.731-1.662-2.387.954m4.14-1.657c-.201.412-.491 2.325-.644 4.25-.195 2.46.039 3.193.788 2.469 1.558-1.508 2.585-7.469 1.287-7.469-.586 0-1.23.338-1.431.75m4.097 1.75c-.083 1.375-.195 2.95-.25 3.5-.138 1.378 1.816.773 2.021-.626.091-.62.469-2.082.84-3.25.491-1.549.249-2.124-.894-2.124-.965 0-1.625.96-1.717 2.5m5.563-.008c-1.673 2.554-1.339 5.508.623 5.508.637 0 .837-.825.476-1.962-.343-1.079-.132-2.879.468-4 1.536-2.871.395-2.54-1.567.454m4.264-1.742c-.243.412-.767 2.266-1.165 4.118-.54 2.515-.402 3.262.545 2.946.698-.232 1.372-1.13 1.499-1.995.127-.864.534-2.527.905-3.695.63-1.985-.784-3.073-1.784-1.374m8.948 2.375c-.816 4.08-.789 4.875.168 4.875.437 0 1.274-1.8 1.861-4 .824-3.085.785-4-.168-4-.68 0-1.517 1.406-1.861 3.125m5.946-1.554c-1.771 1.771-2.081 4.996-.571 5.929.55.34 1-.338 1-1.507 0-1.168.466-2.995 1.035-4.059 1.253-2.341.661-2.488-1.464-.363m3.723-.944c.345.345-.04 2.224-.856 4.175-1.476 3.534-1.474 3.541.54 1.718 2.176-1.969 2.773-6.52.855-6.52-.641 0-.884.282-.539.627m4.331 2.498c-.903 4.515-.815 5.465.392 4.258.56-.56 1.429-2.45 1.931-4.2.693-2.418.599-3.183-.393-3.183-.718 0-1.586 1.406-1.93 3.125m4.601.876c-.154 2.241.176 3.999.75 3.999.563 0 1.03-.787 1.038-1.75.007-.963.285-2.762.616-4 .41-1.53.166-2.25-.763-2.249-.882.001-1.464 1.421-1.641 4m19.62.533c.281 3.527.644 4.305 1.628 3.487.818-.678 1.038-2.171.621-4.211-1.013-4.952-2.658-4.422-2.249.724M200 221c0 .55.45 1 1 1s1-.45 1-1-.45-1-1-1-1 .45-1 1m3.527-.044c-.398.644.04 2.013.973 3.044 1.013 1.119 1.378 2.403.906 3.187-.621 1.032-.432 1.023.881-.042 1.656-1.343 1.525-2.039-1.129-6.002-.672-1.004-1.096-1.053-1.631-.187m11.943 1.45c-.929 1.418-1.43 3.257-1.111 4.086.681 1.776 4.21 2.014 5.236.353.443-.715.275-.883-.44-.44-2.07 1.279-3.144-.304-2.089-3.079 1.351-3.552.464-4.064-1.596-.92m3.855-1.748c.362.362.099 1.335-.584 2.163-1.016 1.231-.969 1.414.259 1.009 1.852-.612 2.614-3.83.907-3.83-.682 0-.944.296-.582.658m4.071 1.092c-.017.963-.369 2.762-.781 4-.412 1.238-.342 2.25.157 2.25 1.052 0 3.228-4.414 3.228-6.547 0-2.091-2.565-1.798-2.604.297m4.357-1c-.201.412-.491 2.325-.644 4.25-.195 2.46.039 3.193.788 2.469 1.558-1.508 2.585-7.469 1.287-7.469-.586 0-1.23.338-1.431.75m4.233 1c-.007.963-.3 2.823-.651 4.134-.46 1.718-.271 2.261.676 1.946.723-.241 1.418-1.146 1.545-2.011.127-.864.534-2.527.905-3.695.491-1.549.249-2.124-.894-2.124-.862 0-1.573.787-1.581 1.75m-206.51 2.325c-.362 1.142-.382 2.353-.043 2.691.969.97 3.881-2.448 3.126-3.67-1.056-1.709-2.361-1.295-3.083.979M72 227c0 .55.477 1 1.059 1s.781-.45.441-1-.816-1-1.059-1-.441.45-.441 1m7 0c0 .55.477 1 1.059 1s.781-.45.441-1-.816-1-1.059-1-.441.45-.441 1m113.5 3c-.34.55.11 1 1 1s1.34-.45 1-1c-.34-.55-.79-1-1-1-.21 0-.66.45-1 1" fill="#1976D2" fill-rule="evenodd"/><path fill-opacity=".985" d="M0 128v128h61.219l-.405-3.471c-.272-2.326.049-3.646.972-4 .758-.291 42.966-.529 93.796-.529H248V9l-30.25-.001C178.201 8.998 52.324 7.586 57.544 7.203c3.976-.293 4.037-.355 3.64-3.75L60.781 0H0v128M196.622 22.543c-.342.891-.622 4.686-.622 8.433v6.812l-7.92.36c-4.357.198-8.281.72-8.721 1.159-.44.44-.972 3.848-1.182 7.572-.516 9.123.51 10.121 10.394 10.121H196l.015 7.25c.009 3.987.385 7.833.837 8.545.587.925 3.08 1.211 8.735 1l7.913-.295.29-8.25.291-8.25h7.759c4.702 0 8.233-.473 8.96-1.2 1.429-1.429 1.6-13.617.222-15.8-.691-1.096-3.046-1.548-8.734-1.678l-7.788-.178-.5-8.322-.5-8.322-8.128-.288c-6.745-.24-8.234-.013-8.75 1.331m-62.788 38.024c-29.955 5.42-59.577 28.071-74.502 56.969-8.604 16.661-11.83 29.944-11.175 46.014.349 8.556.843 10.881 3.526 16.601 7.049 15.029 18.299 20.871 40.116 20.832 24.291-.044 42.534-8.425 62.488-28.708 6.754-6.867 6.777-6.907 4.745-8.746-2.389-2.162-3.433-1.778-12.032 4.428-19.139 13.814-40.991 17.136-51.578 7.84-6.578-5.776-8.868-13.609-7.674-26.256l.752-7.959 10.5-1.294c30.883-3.806 53.617-16.08 67.854-36.635 5.168-7.462 7.498-14.458 7.545-22.653.101-18.034-14.15-25.213-40.565-20.433m-5.411 10.021c-11.201 3.85-26.13 26.301-34.997 52.63l-3.348 9.945 4.211-.685c6.407-1.041 15.399-4.256 19.963-7.137 13.192-8.328 24.587-27.789 25.54-43.619.382-6.35.158-8.12-1.222-9.644-2.289-2.529-5.677-3.027-10.147-1.49M52.639 215.694c-1.126 1.126-.685 2.306.861 2.306.825 0 1.5-.423 1.5-.941 0-1.261-1.562-2.164-2.361-1.365m58.406 2.113c-1.661 1.587-2.769 3.136-2.463 3.442.876.875-1.756 8.678-2.851 8.453-.54-.111-1.187.361-1.439 1.048-.647 1.764 2.259 1.556 4.11-.295.849-.849 2.078-3.324 2.73-5.5.651-2.175 1.521-3.955 1.933-3.955.411 0 .493-.976.181-2.169-.45-1.72-.224-2.037 1.093-1.531 1.765.677 2.328-.77.693-1.78-.532-.329-2.327.7-3.987 2.287m48.594-2.113c-1.126 1.126-.685 2.306.861 2.306.825 0 1.5-.423 1.5-.941 0-1.261-1.562-2.164-2.361-1.365m27.932.877c-2.028 2.028-1.982 2.637.429 5.702 1.1 1.398 2 3.034 2 3.635 0 1.645-2.979 1.311-3.638-.408-.841-2.191-2.362-1.832-2.362.557 0 1.802.528 2.02 4.241 1.75 5.103-.369 6.03-2.596 2.865-6.877-1.458-1.972-1.743-3.036-.945-3.53.628-.388 1.694.049 2.368.971 1.129 1.543 1.266 1.523 1.732-.261.36-1.375-.113-2.104-1.627-2.51-3.058-.821-3.321-.77-5.063.971M24.233 218.46c-.117 1.404-.869 4.125-1.671 6.047L21.102 228h4.327c5.028 0 7.604-2.117 5.898-4.848-.777-1.244-.682-2.031.364-3.008 2.249-2.101.978-3.62-3.297-3.941-3.601-.27-3.969-.071-4.161 2.257m69.196-1.575c.572.925-.879 6.356-2.502 9.365-.783 1.452-.517 1.75 1.565 1.75 1.785 0 2.508-.54 2.508-1.874 0-1.031.655-3.731 1.456-6L97.911 216h-2.514c-1.383 0-2.269.398-1.968.885M27.6 218.6c-.356.927-.422 1.911-.147 2.186.275.275.791-.259 1.147-1.186.356-.927.422-1.911.147-2.186-.275-.275-.791.259-1.147 1.186m126.9.183c-1.1.944-2.055 2.392-2.123 3.217-.067.825-.292 2.384-.5 3.464-.251 1.309.255 2.093 1.519 2.351 1.273.261 1.727-.056 1.381-.964-.283-.743-.057-2.476.502-3.851 1.049-2.579 1.895-6.025 1.465-5.967-.134.019-1.144.806-2.244 1.75m57.24-.033c-.864.963-1.892 3.482-2.285 5.598-.625 3.368-.49 3.805 1.083 3.5.988-.191 1.899-1.248 2.023-2.348.124-1.1.555-3.463.957-5.25.831-3.69.464-3.999-1.778-1.5m-175.326 1.015c-1.4.947-3.51 7.075-2.604 7.562.379.204 3.684.426 7.344.493 7.448.138 9.366-1.46 6.12-5.098-1.72-1.927-1.705-1.966.476-1.288 2.481.773 3.167-.868.75-1.796-3.614-1.387-6.058 2.404-3.317 5.145.651.651.815 1.529.363 1.95-.451.422-1.012.23-1.248-.427-.235-.656-1.071-.946-1.859-.644-1.126.432-1.299-.114-.81-2.557.784-3.921-1.005-4.129-3.07-.355l-1.505 2.75.598-3.25c.63-3.425.509-3.667-1.238-2.485m15.928.003c-.637.405-1.483 2.467-1.88 4.583-.626 3.335-.489 3.799 1.026 3.497 1.255-.25 1.854-1.544 2.128-4.598.209-2.338.269-4.243.132-4.235-.136.009-.769.347-1.406.753m5 .016c-1.64 1.02-2.891 8.216-1.429 8.216.625 0 1.548-1.081 2.05-2.403 1.378-3.624 2.734-3.895 2.228-.446-.366 2.494-.129 2.982 1.311 2.697 1.206-.239 1.844-1.447 2.032-3.848.346-4.417-.182-5.259-2.514-4.011-1.174.629-1.98.641-2.189.035-.182-.528-.852-.636-1.489-.24m9.866.933c-1.993 1.697-2.591 3.246-2.326 6.033.14 1.484 4.729 1.689 5.618.25.342-.553-.414-1.018-1.691-1.04-2.203-.038-2.18-.11.502-1.564 1.631-.884 2.68-2.197 2.5-3.127-.458-2.36-2.229-2.572-4.603-.552m6.796-.222c-1 1.205-.922 1.981.401 4 1.693 2.585.916 3.426-1.205 1.305-.933-.933-1.2-.822-1.2.5 0 1.152.816 1.7 2.531 1.7 3 0 4.052-2.042 2.523-4.899-.909-1.698-.835-1.954.423-1.472.838.322 1.523.135 1.523-.415s-.712-1.273-1.582-1.607c-2.089-.802-1.99-.828-3.414.888m6.996-.499c-1.322.851-1.297 1.325.203 3.985 1.725 3.057 1.195 4.017-1.003 1.819-.933-.933-1.2-.822-1.2.5 0 1.152.816 1.7 2.531 1.7 2.818 0 4.352-2.517 2.602-4.267-1.608-1.608-1.403-2.774.367-2.095.825.317 1.5.126 1.5-.424s-.712-1.273-1.582-1.607c-1.923-.738-1.612-.774-3.418.389m19-.112c-.825.339-1.545 1.291-1.6 2.116-.055.825-.423 2.512-.818 3.75-.526 1.652-.318 2.25.783 2.25.825 0 1.773-.859 2.106-1.91.334-1.05 1.278-2.467 2.1-3.149 1.295-1.074 1.357-.883.472 1.446-.815 2.142-.711 2.803.511 3.272 2.087.801 2.74-.072 2.925-3.903.206-4.292-.23-4.96-2.459-3.767-1.022.547-2.007.609-2.189.137-.182-.472-1.006-.581-1.831-.242m15.635 1.189c-4.411 3.469-3.116 7.767 1.957 6.493 3.001-.753 5.015-5.13 3.307-7.188-1.521-1.833-2.158-1.749-5.264.695m8.577-1.109c-.391.295-.79.994-.885 1.555-.095.56-.481 2.247-.858 3.75-.519 2.066-.32 2.731.814 2.731.825 0 1.783-1.125 2.128-2.5.345-1.375 1.294-2.5 2.108-2.5.815 0 1.481-.804 1.481-1.786 0-1.708-3.102-2.518-4.788-1.25m7.182-.182c-1.545 1.003-2.787 8.218-1.415 8.218.589 0 1.498-1.125 2.021-2.5.523-1.375 1.195-2.5 1.494-2.5.299 0 .262 1.125-.083 2.5-.475 1.891-.236 2.5.981 2.5.884 0 1.608-.589 1.608-1.309s.667-2.182 1.482-3.25c1.38-1.806 1.439-1.709.855 1.41-.535 2.857-.364 3.3 1.158 3 1.805-.355 2.982-4.946 1.976-7.714-.417-1.15-.752-1.15-2.145 0-1.282 1.058-1.745 1.085-2.069.121-.298-.883-.949-.958-2.257-.258-1.165.624-1.96.633-2.169.024-.182-.528-.829-.637-1.437-.242m13.392 1.432c-.982.982-1.786 2.866-1.786 4.186 0 2.076.472 2.4 3.5 2.4 2.17 0 3.5-.485 3.5-1.275 0-.701.262-2.585.582-4.186.508-2.538.288-2.91-1.714-2.91-1.263 0-3.1.803-4.082 1.785m14.599-1.41c-1.349.888-3.41 6.837-2.637 7.611 1.596 1.596 3.062.173 3.657-3.549.722-4.514.573-5.11-1.02-4.062m5.377.271c-4.293 2.497-4.415 7.925-.178 7.925 3.062 0 6.224-4.496 4.776-6.791-1.313-2.081-2.476-2.368-4.598-1.134m8.238-.189c-.825.338-1.555 1.064-1.622 1.614-.067.55-.413 2.238-.769 3.75-.489 2.077-.275 2.75.872 2.75.835 0 1.533-.562 1.551-1.25.017-.687.736-2.15 1.597-3.25 1.486-1.899 1.53-1.831.869 1.343-.582 2.788-.424 3.285.955 3 .909-.189 1.683-.793 1.72-1.343.036-.55.438-1.978.893-3.173.952-2.503-1.315-5.351-2.602-3.269-.439.711-.954.782-1.339.185-.344-.533-1.3-.694-2.125-.357m26.885-.336c-.063.522-.042 1.698.048 2.611.089.914-.309 1.953-.885 2.309-.626.387-1.048-.382-1.048-1.911 0-1.446-.571-2.559-1.313-2.559-.908 0-1.293 1.463-1.25 4.75.053 3.988-.218 4.703-1.687 4.456-1.921-.322-2.385 1.284-.676 2.34 1.384.855 5.154-2.698 7.515-7.082 1.451-2.694 1.586-3.689.629-4.646-.67-.67-1.27-.79-1.333-.268m4.365.112c-1.492.603-1.666 3.963-.25 4.838.55.34 1 1.097 1 1.681 0 .671-.554.604-1.5-.181-1.229-1.02-1.5-.951-1.5.378 0 1.069.863 1.622 2.531 1.622 2.818 0 4.352-2.517 2.602-4.267-1.608-1.608-1.403-2.774.367-2.095.825.317 1.5.126 1.5-.424 0-.795-2.616-2.471-3.332-2.135-.092.043-.73.306-1.418.583m12.385 1.411c-4.634 3.645-2.47 8.607 2.67 6.123l2.195-1.061-2.306-.067c-2.298-.068-2.296-.076.41-2.404 1.566-1.347 2.412-2.829 1.997-3.5-1.011-1.636-1.95-1.464-4.966.909m7.707-1.289c-1.64 1.02-2.891 8.216-1.429 8.216.625 0 1.564-1.125 2.087-2.5.523-1.375 1.195-2.5 1.494-2.5.299 0 .262 1.125-.083 2.5-.475 1.891-.236 2.5.981 2.5.884 0 1.608-.589 1.608-1.309s.667-2.182 1.482-3.25c1.38-1.806 1.439-1.709.855 1.41-.535 2.857-.364 3.3 1.158 3 1.805-.355 2.982-4.946 1.976-7.714-.417-1.15-.752-1.15-2.145 0-1.282 1.058-1.745 1.085-2.069.121-.298-.883-.949-.958-2.257-.258-1.165.624-1.96.633-2.169.024-.182-.528-.852-.636-1.489-.24m-107.735 2.798c-.334.87-.593 2.332-.575 3.25.027 1.439.233 1.401 1.5-.273 1.639-2.167 1.941-4.559.575-4.559-.491 0-1.166.712-1.5 1.582m29.762.025c-.372 1.041-.86 2.231-1.082 2.643-.223.412.041.75.587.75 1.151 0 2.582-3.878 1.741-4.718-.312-.313-.873.284-1.246 1.325m18.734.201c-.678 1.267-1.054 2.839-.835 3.495.225.675.931.194 1.629-1.111.678-1.267 1.054-2.839.835-3.495-.225-.675-.931-.194-1.629 1.111M217.5 222c-.34.55-.141 1 .441 1s1.059-.45 1.059-1-.198-1-.441-1-.719.45-1.059 1m-191.844 2.206c-.661 2.531-.252 3.28 1.277 2.335 1.284-.793 1.435-4.541.184-4.541-.486 0-1.143.993-1.461 2.206M22 234c0 .66 36 1 106 1s106-.34 106-1c0-.66-36-1-106-1s-106 .34-106 1" fill="#1976D2" fill-rule="evenodd"/></svg>